<svg width="99" height="17" viewBox="0 0 99 17" fill="none" xmlns="http://www.w3.org/2000/svg">
<path d="M9.35369 1.45348V10.8427C9.35369 12.8171 7.99006 14.2376 5.77415 14.2376C3.56534 14.2376 2.1946 12.8171 2.1946 10.8427V1.45348H0V11.0202C0 14.0742 2.28693 16.2404 5.77415 16.2404C9.26136 16.2404 11.5554 14.0742 11.5554 11.0202V1.45348H9.35369Z" fill="#101828"/>
<path d="M16.6992 9.52166C16.6992 7.7816 17.7646 6.78729 19.2418 6.78729C20.6836 6.78729 21.5572 7.73189 21.5572 9.3157V15.9989H23.6808V9.06001C23.6808 6.36115 22.1964 4.9478 19.9663 4.9478C18.3256 4.9478 17.2532 5.70774 16.7489 6.86541H16.614V5.08984H14.5756V15.9989H16.6992V9.52166Z" fill="#101828"/>
<path d="M31.6211 5.08984H29.3839V2.47621H27.2603V5.08984H25.6623V6.79439H27.2603V13.2362C27.2532 15.2177 28.766 16.1765 30.4421 16.141C31.1168 16.1339 31.5714 16.006 31.82 15.9137L31.4364 14.1594C31.2944 14.1879 31.0316 14.2518 30.6907 14.2518C30.0018 14.2518 29.3839 14.0245 29.3839 12.7958V6.79439H31.6211V5.08984Z" fill="#101828"/>
<path d="M33.9702 15.9989H36.0938V5.08984H33.9702V15.9989ZM35.0426 3.40661C35.7741 3.40661 36.3849 2.83842 36.3849 2.1424C36.3849 1.44638 35.7741 0.871094 35.0426 0.871094C34.304 0.871094 33.7003 1.44638 33.7003 2.1424C33.7003 2.83842 34.304 3.40661 35.0426 3.40661Z" fill="#101828"/>
<path d="M44.043 5.08984H41.8058V2.47621H39.6822V5.08984H38.0842V6.79439H39.6822V13.2362C39.6751 15.2177 41.1879 16.1765 42.864 16.141C43.5387 16.1339 43.9933 16.006 44.2418 15.9137L43.8583 14.1594C43.7163 14.1879 43.4535 14.2518 43.1126 14.2518C42.4237 14.2518 41.8058 14.0245 41.8058 12.7958V6.79439H44.043V5.08984Z" fill="#101828"/>
<path d="M48.75 1.45348H46.6264V15.9989H48.75V1.45348Z" fill="#101828"/>
<path d="M56.3086 16.2191C58.6879 16.2191 60.3711 15.0472 60.854 13.2717L58.8441 12.9094C58.4606 13.9393 57.5373 14.4648 56.3299 14.4648C54.5117 14.4648 53.2901 13.2859 53.2333 11.1836H60.989V10.4308C60.989 6.48899 58.631 4.9478 56.1594 4.9478C53.1197 4.9478 51.1168 7.26314 51.1168 10.6154C51.1168 14.0032 53.0913 16.2191 56.3086 16.2191ZM53.2404 9.59268C53.3256 8.04439 54.4478 6.70206 56.1737 6.70206C57.8214 6.70206 58.9009 7.92365 58.908 9.59268H53.2404Z" fill="#101828"/>
<path d="M67.429 16.212C69.4176 16.212 70.1989 14.9975 70.5824 14.3015H70.7599V15.9989H72.8338V1.45348H70.7102V6.85831H70.5824C70.1989 6.18359 69.4744 4.9478 67.4432 4.9478C64.8082 4.9478 62.8693 7.02876 62.8693 10.5657C62.8693 14.0955 64.7798 16.212 67.429 16.212ZM67.8977 14.4009C66.0014 14.4009 65.0142 12.7319 65.0142 10.5444C65.0142 8.3782 65.9801 6.75178 67.8977 6.75178C69.7514 6.75178 70.7457 8.26456 70.7457 10.5444C70.7457 12.8384 69.7301 14.4009 67.8977 14.4009Z" fill="#101828"/>
<path d="M90.6818 1.45348V10.8427C90.6818 12.8171 89.3182 14.2376 87.1023 14.2376C84.8935 14.2376 83.5227 12.8171 83.5227 10.8427V1.45348H81.3281V11.0202C81.3281 14.0742 83.6151 16.2404 87.1023 16.2404C90.5895 16.2404 92.8835 14.0742 92.8835 11.0202V1.45348H90.6818Z" fill="#101828"/>
<path d="M98.2688 1.45348H96.0742V15.9989H98.2688V1.45348Z" fill="#101828"/>
</svg>
